# xmcd
#
# Track frame offsets:
#	150
#	13983
#	29956
#	42212
#	59303
#	74092
#	93995
#	112628
#	126990
#	139722
#	153769
#	171768
#	188029
#	201351
#	223354
#	238721
#	261757
#	272538
#	285909
#	301729
#	321173
#
# Disc length: 4601 seconds
#
# Revision: 0
# Processed by: cddbd v1.5.2PL0 Copyright (c) Steve Scherf et al.
# Submitted via: EasyCDDAExtractor 12.0.1.1
#
DISCID=3611f715
DTITLE=Tom Petty - Best Of Tom Petty
DYEAR=2009
DGENRE=Blues
TTITLE0=LISTEN TO HER HEART
TTITLE1=AMERICAN GIRL
TTITLE2=BREAKDOWN
TTITLE3=SAVING GRACE
TTITLE4=BIG WEEKEND
TTITLE5=HERE COMES MY GIRL
TTITLE6=LOVE IS A LONG ROAD
TTITLE7=TWO GUNSLINGERS
TTITLE8=FEEL A WHOLE LOT BETTER
TTITLE9=YER SO BAD
TTITLE10=THE WAITING
TTITLE11=YOU GOT LUCKY
TTITLE12=I WONT BACK DOWN
TTITLE13=RUNNIN' DOWN A DREAM
TTITLE14=REFUGEE
TTITLE15=DONT COME AROUND HERE NO MORE
TTITLE16=I NEED TO KNOW
TTITLE17=ZOMBIE ZOO
TTITLE18=A MIND WITH A HEART OF IT'S OWN
TTITLE19=FREE FALLIN'
TTITLE20=REBELS
EXTD=
EXTT0=
EXTT1=
EXTT2=
EXTT3=
EXTT4=
EXTT5=
EXTT6=
EXTT7=
EXTT8=
EXTT9=
EXTT10=
EXTT11=
EXTT12=
EXTT13=
EXTT14=
EXTT15=
EXTT16=
EXTT17=
EXTT18=
EXTT19=
EXTT20=
PLAYORDER=
